<svg viewBox="0 0 800 800" fill="none" xmlns="http://www.w3.org/2000/svg">
<path fill-rule="evenodd" clip-rule="evenodd" d="M616.213 467.495C630.29 488.61 624.584 517.137 603.47 531.214C427.821 648.313 258.627 587.779 182.463 529.466C162.314 514.039 158.485 485.199 173.912 465.05C189.339 444.901 218.179 441.073 238.328 456.499C292.194 497.741 417.992 544.42 552.495 454.751C573.609 440.675 602.137 446.38 616.213 467.495Z" />
<path d="M532.749 211.945C536.45 201.944 550.595 201.944 554.296 211.945L572.715 261.723C573.879 264.867 576.358 267.346 579.502 268.509L629.279 286.929C639.28 290.629 639.28 304.775 629.279 308.475L579.502 326.895C576.358 328.058 573.879 330.537 572.715 333.681L554.296 383.459C550.595 393.46 536.45 393.46 532.749 383.459L514.33 333.681C513.167 330.537 510.688 328.058 507.543 326.895L457.766 308.475C447.765 304.775 447.765 290.629 457.766 286.929L507.543 268.509C510.688 267.346 513.167 264.867 514.33 261.723L532.749 211.945Z" />
<path fill-rule="evenodd" clip-rule="evenodd" d="M256.346 332.164C275.379 332.164 290.808 316.735 290.808 297.702C290.808 278.67 275.379 263.241 256.346 263.241C237.314 263.241 221.885 278.67 221.885 297.702C221.885 316.735 237.314 332.164 256.346 332.164ZM256.346 389.599C307.099 389.599 348.243 348.456 348.243 297.702C348.243 246.949 307.099 205.806 256.346 205.806C205.593 205.806 164.45 246.949 164.45 297.702C164.45 348.456 205.593 389.599 256.346 389.599Z" />
</svg>
